<?xml version="1.0" encoding="utf-8"?>
<!-- Generator: Adobe Illustrator 16.0.0, SVG Export Plug-In . SVG Version: 6.00 Build 0)  -->
<!DOCTYPE svg PUBLIC "-//W3C//DTD SVG 1.1//EN" "http://www.w3.org/Graphics/SVG/1.1/DTD/svg11.dtd">
<svg version="1.1" id="Layer_1" xmlns="http://www.w3.org/2000/svg" xmlns:xlink="http://www.w3.org/1999/xlink" x="0px" y="0px"
	 width="44px" height="44px" viewBox="0 0 44 44" enable-background="new 0 0 44 44" xml:space="preserve">
<path d="M25.114,21.498L37.31,9.288c0.866-0.868,0.866-2.274,0-3.142s-2.27-0.867-3.136,0L21.979,18.357L9.783,6.146
	c-0.865-0.867-2.271-0.867-3.137,0c-0.867,0.867-0.867,2.273,0,3.142l12.194,12.21L6.646,33.708c-0.867,0.868-0.867,2.273,0,3.142
	c0.433,0.434,1,0.65,1.569,0.65c0.566,0,1.133-0.217,1.567-0.65l12.195-12.211L34.174,36.85c0.433,0.434,1.001,0.65,1.569,0.65
	c0.566,0,1.135-0.217,1.566-0.65c0.866-0.868,0.866-2.273,0-3.142L25.114,21.498z"/>
</svg>
