<?xml version="1.0" encoding="utf-8"?>
<!-- Generator: Adobe Illustrator 16.0.0, SVG Export Plug-In . SVG Version: 6.00 Build 0)  -->
<!DOCTYPE svg PUBLIC "-//W3C//DTD SVG 1.1//EN" "http://www.w3.org/Graphics/SVG/1.1/DTD/svg11.dtd">
<svg version="1.1" id="Layer_1" xmlns="http://www.w3.org/2000/svg" xmlns:xlink="http://www.w3.org/1999/xlink" x="0px" y="0px"
	 width="74px" height="74px" viewBox="0 0 74 74" enable-background="new 0 0 74 74" xml:space="preserve">
<g>
	<path d="M4.059,16.84h37.83c1.137,0,2.059-0.927,2.059-2.071s-0.922-2.072-2.059-2.072H4.059
		C2.921,12.696,2,13.624,2,14.769S2.921,16.84,4.059,16.84z M69.94,39.762c1.138,0,2.06-0.927,2.06-2.071
		c0-1.144-0.922-2.072-2.06-2.072h-37.86c-1.137,0-2.059,0.929-2.059,2.072c0,1.145,0.921,2.071,2.059,2.071H69.94z M69.94,58.084
		H36.173v-7.049c0-1.145-0.92-2.072-2.059-2.072c-1.137,0-2.058,0.928-2.058,2.072v18.394c0,1.144,0.92,2.071,2.058,2.071
		c1.139,0,2.059-0.928,2.059-2.071v-7.202H69.94c1.138,0,2.06-0.928,2.06-2.071C72,59.011,71.078,58.084,69.94,58.084z
		 M25.012,58.084H4.093c-1.136,0-2.058,0.927-2.058,2.071c0,1.144,0.922,2.071,2.058,2.071h20.919c1.136,0,2.058-0.928,2.058-2.071
		C27.069,59.011,26.148,58.084,25.012,58.084z M49.482,26.037c1.138,0,2.06-0.928,2.06-2.072V16.84h18.354
		c1.136,0,2.059-0.927,2.059-2.071s-0.923-2.072-2.059-2.072H51.542V5.572c0-1.145-0.922-2.072-2.06-2.072
		c-1.137,0-2.059,0.928-2.059,2.072v18.393C47.424,25.109,48.346,26.037,49.482,26.037z M22.891,48.959
		c1.136,0,2.058-0.928,2.058-2.071V28.494c0-1.144-0.922-2.071-2.058-2.071c-1.138,0-2.06,0.928-2.06,2.071v6.9H4.093
		c-1.136,0-2.058,0.929-2.058,2.073c0,1.144,0.922,2.072,2.058,2.072h16.738v7.348C20.831,48.031,21.752,48.959,22.891,48.959z"/>
</g>
</svg>
