<?xml version="1.0" encoding="utf-8"?>
<!-- Generator: Adobe Illustrator 16.0.0, SVG Export Plug-In . SVG Version: 6.00 Build 0)  -->
<!DOCTYPE svg PUBLIC "-//W3C//DTD SVG 1.1//EN" "http://www.w3.org/Graphics/SVG/1.1/DTD/svg11.dtd">
<svg version="1.1" id="Layer_1" xmlns="http://www.w3.org/2000/svg" xmlns:xlink="http://www.w3.org/1999/xlink" x="0px" y="0px"
	 width="32px" height="28px" viewBox="0 0 32 28" enable-background="new 0 0 32 28" xml:space="preserve">
<path d="M30.242,12.772H6.173l7.949-8.366c0.661-0.698,0.623-1.791-0.087-2.442c-0.71-0.65-1.823-0.612-2.485,0.085
	L0.474,13.71c-0.647,0.681-0.628,1.742,0.042,2.4l11.077,10.884c0.342,0.338,0.793,0.505,1.244,0.505
	c0.449,0,0.899-0.167,1.242-0.505c0.688-0.675,0.688-1.769,0-2.443l-8.469-8.324h24.633c0.971,0,1.758-0.772,1.758-1.727
	S31.213,12.772,30.242,12.772z"/>
</svg>
