<?xml version="1.0" encoding="utf-8"?>
<!-- Generator: Adobe Illustrator 16.0.0, SVG Export Plug-In . SVG Version: 6.00 Build 0)  -->
<!DOCTYPE svg PUBLIC "-//W3C//DTD SVG 1.1//EN" "http://www.w3.org/Graphics/SVG/1.1/DTD/svg11.dtd">
<svg version="1.1" id="Layer_1" xmlns="http://www.w3.org/2000/svg" xmlns:xlink="http://www.w3.org/1999/xlink" x="0px" y="0px"
	 width="74px" height="74px" viewBox="0 0 74 74" enable-background="new 0 0 74 74" xml:space="preserve">
<g>
	<path d="M64.988,19.728c-0.004-0.04-0.01-0.077-0.016-0.116c-0.005-0.029-0.008-0.06-0.014-0.088
		c-0.009-0.046-0.022-0.091-0.033-0.136c-0.006-0.021-0.01-0.042-0.016-0.063c-0.015-0.046-0.03-0.089-0.047-0.134
		c-0.008-0.02-0.015-0.041-0.021-0.059c-0.018-0.042-0.037-0.082-0.057-0.123c-0.011-0.021-0.02-0.043-0.032-0.063
		c-0.018-0.037-0.04-0.071-0.061-0.106c-0.014-0.024-0.028-0.048-0.043-0.071c-0.021-0.031-0.043-0.061-0.066-0.091
		c-0.019-0.025-0.035-0.051-0.055-0.074c-0.023-0.029-0.048-0.056-0.072-0.082c-0.018-0.021-0.034-0.042-0.054-0.062L49.566,3.142
		c-0.001-0.003-0.006-0.007-0.01-0.01c-0.03-0.031-0.063-0.06-0.094-0.088c-0.019-0.017-0.038-0.037-0.058-0.054
		c-0.039-0.032-0.081-0.063-0.122-0.094c-0.016-0.01-0.027-0.021-0.042-0.03c-0.283-0.193-0.614-0.319-0.974-0.355
		C48.197,2.504,48.126,2.5,48.055,2.5H11.108C9.943,2.5,9,3.448,9,4.619v65.762c0,1.171,0.943,2.119,2.108,2.119h51.782
		c1.164,0,2.11-0.948,2.11-2.119V19.937C65.001,19.866,64.996,19.796,64.988,19.728z M50.165,9.836l7.729,7.981h-7.729V9.836z
		 M60.781,68.262H13.219V6.738h32.728v13.198c0,1.171,0.943,2.119,2.108,2.119h12.727V68.262z M53.319,30.146
		c1.164,0,2.109-0.948,2.109-2.119v-0.034c0-1.171-0.945-2.119-2.109-2.119c-1.165,0-2.111,0.948-2.111,2.119v0.034
		C51.208,29.197,52.154,30.146,53.319,30.146z M53.319,38.645c1.164,0,2.109-0.949,2.109-2.12v-0.035
		c0-1.171-0.945-2.119-2.109-2.119c-1.165,0-2.111,0.948-2.111,2.119v0.035C51.208,37.695,52.154,38.645,53.319,38.645z
		 M53.319,47.141c1.164,0,2.109-0.949,2.109-2.119v-0.035c0-1.17-0.945-2.117-2.109-2.117c-1.165,0-2.111,0.947-2.111,2.117v0.035
		C51.208,46.191,52.154,47.141,53.319,47.141z M53.319,55.638c1.164,0,2.109-0.949,2.109-2.119v-0.034
		c0-1.171-0.945-2.119-2.109-2.119c-1.165,0-2.111,0.948-2.111,2.119v0.034C51.208,54.688,52.154,55.638,53.319,55.638z
		 M53.319,64.135c1.164,0,2.109-0.948,2.109-2.119v-0.034c0-1.171-0.945-2.118-2.109-2.118c-1.165,0-2.111,0.947-2.111,2.118v0.034
		C51.208,63.187,52.154,64.135,53.319,64.135z M19.112,30.111h16.667c1.165,0,2.109-0.949,2.109-2.119
		c0-1.171-0.944-2.119-2.109-2.119H19.112c-1.165,0-2.11,0.948-2.11,2.119C17.002,29.162,17.947,30.111,19.112,30.111z
		 M45.483,34.379H19.112c-1.165,0-2.11,0.949-2.11,2.119s0.945,2.119,2.11,2.119h26.371c1.165,0,2.11-0.949,2.11-2.119
		S46.648,34.379,45.483,34.379z M19.112,47.123h12.446c1.167,0,2.11-0.948,2.11-2.119c0-1.17-0.943-2.119-2.11-2.119H19.112
		c-1.165,0-2.11,0.949-2.11,2.119C17.002,46.175,17.947,47.123,19.112,47.123z M41.264,51.391H19.112
		c-1.165,0-2.11,0.949-2.11,2.119s0.945,2.119,2.11,2.119h22.151c1.164,0,2.109-0.949,2.109-2.119S42.428,51.391,41.264,51.391z
		 M37.783,59.896H19.112c-1.165,0-2.11,0.949-2.11,2.119c0,1.171,0.945,2.119,2.11,2.119h18.671c1.165,0,2.108-0.948,2.108-2.119
		C39.892,60.846,38.948,59.896,37.783,59.896z"/>
</g>
</svg>
