<?xml version="1.0" encoding="utf-8"?>
<!-- Generator: Adobe Illustrator 16.0.0, SVG Export Plug-In . SVG Version: 6.00 Build 0)  -->
<!DOCTYPE svg PUBLIC "-//W3C//DTD SVG 1.1//EN" "http://www.w3.org/Graphics/SVG/1.1/DTD/svg11.dtd">
<svg version="1.1" id="Layer_1" xmlns="http://www.w3.org/2000/svg" xmlns:xlink="http://www.w3.org/1999/xlink" x="0px" y="0px"
	 width="44px" height="44px" viewBox="0 0 44 44" enable-background="new 0 0 44 44" xml:space="preserve">
<g>
	<path d="M16.478,23.648h14.579c0.17,0.03,0.4,0.059,0.678,0.059c1.156,0,3.106-0.496,4.632-3.399
		c1.712-3.263,6.439-12.794,6.485-12.889c0.22-0.443,0.193-0.968-0.068-1.387c-0.262-0.42-0.723-0.675-1.221-0.675H9.343
		L7.918,2.324C7.683,1.821,7.174,1.5,6.614,1.5H1.438C0.644,1.5,0,2.14,0,2.928c0,0.79,0.644,1.43,1.438,1.43H5.7l8.344,17.768
		c-0.668,1.057-1.821,2.897-2.777,4.514c-0.895,1.51-0.676,2.579-0.335,3.21c0.723,1.342,2.34,1.496,2.656,1.514
		c0.027,0.002,0.053,0.002,0.08,0.002h25.305c0.795,0,1.438-0.64,1.438-1.428c0-0.79-0.644-1.43-1.438-1.43H13.726
		c-0.039-0.005-0.104-0.019-0.169-0.037c0.032-0.089,0.091-0.215,0.188-0.382C14.683,26.502,15.819,24.69,16.478,23.648z
		 M10.686,8.216h28.563c-1.494,3.003-4.225,8.471-5.434,10.771c-0.848,1.617-1.752,1.934-2.18,1.865
		c-0.164-0.068-0.236-0.061-0.427-0.062H16.592L10.686,8.216z M14.071,33.032c-2.352,0-4.263,1.898-4.263,4.233
		S11.72,41.5,14.071,41.5c2.348,0,4.26-1.899,4.26-4.234S16.419,33.032,14.071,33.032z M14.071,38.642
		c-0.765,0-1.387-0.617-1.387-1.376c0-0.758,0.622-1.376,1.387-1.376c0.763,0,1.383,0.618,1.383,1.376
		C15.455,38.024,14.834,38.642,14.071,38.642z M35.182,33.032c-2.351,0-4.263,1.898-4.263,4.233s1.912,4.234,4.263,4.234
		c2.35,0,4.262-1.899,4.262-4.234S37.531,33.032,35.182,33.032z M35.182,38.642c-0.764,0-1.387-0.617-1.387-1.376
		c0-0.758,0.623-1.376,1.387-1.376s1.384,0.618,1.384,1.376C36.565,38.024,35.945,38.642,35.182,38.642z"/>
</g>
</svg>
