<?xml version="1.0" encoding="UTF-8" standalone="no"?>
<svg
   xmlns:dc="http://purl.org/dc/elements/1.1/"
   xmlns:cc="http://creativecommons.org/ns#"
   xmlns:rdf="http://www.w3.org/1999/02/22-rdf-syntax-ns#"
   xmlns:svg="http://www.w3.org/2000/svg"
   xmlns="http://www.w3.org/2000/svg"
   xmlns:sodipodi="http://sodipodi.sourceforge.net/DTD/sodipodi-0.dtd"
   xmlns:inkscape="http://www.inkscape.org/namespaces/inkscape"
   viewBox="0 0 500 500"
   id="svg2"
   version="1.1"
   inkscape:version="0.91 r13725"
   sodipodi:docname="chrono-clockwise.svg">
  <metadata
     id="metadata12">
    <rdf:RDF>
      <cc:Work
         rdf:about="">
        <dc:format>image/svg+xml</dc:format>
        <dc:type
           rdf:resource="http://purl.org/dc/dcmitype/StillImage" />
        <dc:title />
      </cc:Work>
    </rdf:RDF>
  </metadata>
  <defs
     id="defs10" />
  <sodipodi:namedview
     pagecolor="#ffffff"
     bordercolor="#666666"
     borderopacity="1"
     objecttolerance="10"
     gridtolerance="10"
     guidetolerance="10"
     inkscape:pageopacity="0"
     inkscape:pageshadow="2"
     inkscape:window-width="1920"
     inkscape:window-height="1016"
     id="namedview8"
     showgrid="false"
     inkscape:zoom="0.472"
     inkscape:cx="258.47458"
     inkscape:cy="250"
     inkscape:window-x="0"
     inkscape:window-y="27"
     inkscape:window-maximized="1"
     inkscape:current-layer="svg2" />
  <path
     d="m 211.52712,466.78814 c -100,0 -181.299999,-81.3 -181.299999,-181.3 0.1,-99.9 81.399999,-181.2 181.299999,-181.2 99.9,0 181.3,81.3 181.3,181.3 0,99.9 -81.3,181.2 -181.3,181.2 z m 0,-320.2 c -76.6,0 -139,62.4 -139,139 0,76.6 62.4,139 139,139 76.6,0 139,-62.4 139,-139 0,-76.7 -62.3,-139 -139,-139 z"
     id="path4"
     inkscape:connector-curvature="0"
     style="fill:#000000" />
  <path
     d="m 298.1484,417.62127 30.4,-30.4 c 1.3,-1.3 3.5,-1.3 4.8,0 l 43.6,43.6 c 1.3,1.3 1.3,3.5 0,4.8 l -30.4,30.4 c -1.3,1.3 -3.5,1.3 -4.8,0 l -43.6,-43.6 c -1.3,-1.3 -1.3,-3.5 0,-4.8 z m 0,-263.19999 30.4,30.4 c 1.3,1.3 3.5,1.3 4.8,0 l 43.6,-43.7 c 1.3,-1.3 1.3,-3.5 0,-4.8 l -30.4,-30.30001 c -1.3,-1.3 -3.5,-1.3 -4.8,0 l -43.6,43.60001 c -1.3,1.4 -1.3,3.5 0,4.8 z m 114.3,110.6 0,42 -39.7,0 0,-42 z m 16.5,66.29999 0,-90.59999 c 0,-1.8 1.5,-3.3 3.3,-3.3 l 41.99999,0 c 1.8,0 3.3,1.5 3.3,3.3 l 0,90.59999 c 0,1.8 -1.5,3.3 -3.3,3.3 l -41.99999,0 c -1.8,0 -3.3,-1.5 -3.3,-3.3 z M 92.048396,286.02128 c -63.000003,-169.26668 -31.5,-84.63333 0,0 z"
     id="path6"
     inkscape:connector-curvature="0"
     style="fill:#000000" />
</svg>
