<svg xmlns="http://www.w3.org/2000/svg" viewBox="0 0 500 500"><path fill="black" d="M253.9 479.5c-100 0-181.3-81.3-181.3-181.3C72.7 198.3 154 117 253.9 117s181.3 81.3 181.3 181.3c0 99.9-81.3 181.2-181.3 181.2zm0-320.2c-76.6 0-139 62.4-139 139s62.4 139 139 139 139-62.4 139-139c0-76.7-62.3-139-139-139z"/><path fill="black" d="M 385.5,199.4 355.1,169 c -1.3,-1.3 -1.3,-3.5 0,-4.8 l 43.6,-43.6 c 1.3,-1.3 3.5,-1.3 4.8,0 l 30.4,30.4 c 1.3,1.3 1.3,3.5 0,4.8 l -43.6,43.6 c -1.3,1.3 -3.5,1.3 -4.8,0 z m -263.2,0 30.4,-30.4 c 1.3,-1.3 1.3,-3.5 0,-4.8 L 109,120.6 c -1.3,-1.3 -3.5,-1.3 -4.8,0 L 73.9,151 c -1.3,1.3 -1.3,3.5 0,4.8 l 43.6,43.6 c 1.4,1.3 3.5,1.3 4.8,0 z m 110.6,-114.3 42,0 0,39.7 -42,0 z m 66.3,-16.5 -90.6,0 c -1.8,0 -3.3,-1.5 -3.3,-3.3 l 0,-42 c 0,-1.8 1.5,-3.3 3.3,-3.3 l 90.6,0 c 1.8,0 3.3,1.5 3.3,3.3 l 0,42 c 0,1.8 -1.5,3.3 -3.3,3.3 z m -45.3,336.9 c -169.266667,63 -84.63333,31.5 0,0 z"/></svg>
