<?xml version="1.0" encoding="utf-8"?>
<!-- Generator: Adobe Illustrator 16.0.0, SVG Export Plug-In . SVG Version: 6.00 Build 0)  -->
<!DOCTYPE svg PUBLIC "-//W3C//DTD SVG 1.1//EN" "http://www.w3.org/Graphics/SVG/1.1/DTD/svg11.dtd">
<svg version="1.1" id="Layer_1" xmlns="http://www.w3.org/2000/svg" xmlns:xlink="http://www.w3.org/1999/xlink" x="0px" y="0px"
	 width="44px" height="44px" viewBox="0 0 44 44" enable-background="new 0 0 44 44" xml:space="preserve">
<g>
	<path d="M35.486,20.404c-0.816,0-1.476,0.652-1.476,1.457v16.724H9.99V21.861c0-0.805-0.661-1.457-1.476-1.457
		c-0.816,0-1.479,0.652-1.479,1.457v18.182c0,0.805,0.662,1.457,1.479,1.457h26.973c0.815,0,1.478-0.652,1.478-1.457V21.861
		C36.964,21.057,36.302,20.404,35.486,20.404z M41.42,15.777L22.897,1.798c-0.53-0.4-1.266-0.4-1.796,0L2.58,15.777
		c-0.647,0.489-0.772,1.403-0.275,2.042c0.496,0.641,1.422,0.762,2.07,0.272L22,4.79l17.625,13.302
		c0.268,0.202,0.584,0.301,0.896,0.301c0.443,0,0.883-0.197,1.174-0.573C42.191,17.181,42.068,16.267,41.42,15.777z"/>
</g>
</svg>
