<?xml version="1.0" encoding="utf-8"?>
<!-- Generator: Adobe Illustrator 16.0.0, SVG Export Plug-In . SVG Version: 6.00 Build 0)  -->
<!DOCTYPE svg PUBLIC "-//W3C//DTD SVG 1.1//EN" "http://www.w3.org/Graphics/SVG/1.1/DTD/svg11.dtd">
<svg version="1.1" id="Layer_1" xmlns="http://www.w3.org/2000/svg" xmlns:xlink="http://www.w3.org/1999/xlink" x="0px" y="0px"
	 width="96px" height="96px" viewBox="0 0 96 96" enable-background="new 0 0 96 96" xml:space="preserve">
<g>
	<path d="M73.902,39.059V27.804c0-13.988-11.598-25.326-25.901-25.326c-14.308,0-25.901,11.338-25.901,25.326v11.255
		c-4.771,0-8.634,3.78-8.634,8.443v19.699c0,13.988,11.594,25.325,25.899,25.325h17.267c14.307,0,25.898-11.337,25.898-25.325
		V47.502C82.531,42.837,78.666,39.059,73.902,39.059z M27.857,27.804c0-10.879,9.019-19.699,20.145-19.699
		c11.125,0,20.145,8.82,20.145,19.699v11.255h-5.758V27.81c0-7.773-6.438-14.071-14.387-14.071s-14.39,6.298-14.39,14.071v11.249
		h-5.754V27.804z M59.512,27.804v11.255H36.488V27.804c0-6.216,5.156-11.256,11.514-11.256
		C54.356,16.547,59.512,21.587,59.512,27.804z M76.777,67.201c0,10.859-9.039,19.697-20.145,19.697H39.366
		c-11.105,0-20.144-8.838-20.144-19.697V47.502c0-1.553,1.288-2.814,2.878-2.814h51.802c1.582,0,2.875,1.261,2.875,2.814V67.201z
		 M48.001,55.944c-3.178,0-5.756,2.519-5.756,5.628c0,1.708,0.956,4.953,1.918,7.52c0.783,2.088,1.768,3.731,3.838,3.731
		c2.25,0,3.05-1.627,3.837-3.703c0.972-2.573,1.917-5.833,1.917-7.548C53.756,58.463,51.176,55.944,48.001,55.944z"/>
</g>
</svg>
