<?xml version="1.0" encoding="utf-8"?>
<!-- Generator: Adobe Illustrator 16.0.0, SVG Export Plug-In . SVG Version: 6.00 Build 0)  -->
<!DOCTYPE svg PUBLIC "-//W3C//DTD SVG 1.1//EN" "http://www.w3.org/Graphics/SVG/1.1/DTD/svg11.dtd">
<svg version="1.1" id="Layer_1" xmlns="http://www.w3.org/2000/svg" xmlns:xlink="http://www.w3.org/1999/xlink" x="0px" y="0px"
	 width="44px" height="44px" viewBox="0 0 44 44" enable-background="new 0 0 44 44" xml:space="preserve">
<g>
	<path d="M36.428,8.469c-0.003-3.85-3.174-6.97-7.084-6.968c-3.908,0.002-7.076,3.12-7.078,6.968
		c0,3.854,7.081,12.557,7.081,12.557S36.428,12.322,36.428,8.469z M25.936,8.769c0-1.854,1.527-3.358,3.411-3.358
		c1.885,0,3.412,1.504,3.412,3.358c-0.003,1.852-1.531,3.353-3.412,3.353v0.006C27.463,12.127,25.936,10.623,25.936,8.769z
		 M39.173,10.806l-0.46-0.17c-0.222,0.844-0.585,1.777-1.092,2.816c-0.057,0.111-0.114,0.227-0.174,0.342v20.114l-6.633-2.448
		v-8.074c-0.425,0.295-0.937,0.457-1.468,0.457c-0.38,0-0.749-0.084-1.085-0.238v7.949l-13.524,6.657V17.279l6.622-3.26
		c-0.099-0.192-0.196-0.383-0.285-0.567c-0.301-0.613-0.549-1.189-0.748-1.732l-6.865,3.379l-8.616-4.241
		c-0.396-0.195-0.866-0.174-1.241,0.056c-0.376,0.229-0.606,0.632-0.606,1.068v23.74c0,0.476,0.274,0.911,0.706,1.123l9.186,4.523
		c0.012,0.005,0.023,0.008,0.035,0.013c0.019,0.009,0.038,0.017,0.057,0.025c0.033,0.013,0.066,0.024,0.099,0.034
		c0.02,0.006,0.039,0.012,0.059,0.017c0.036,0.01,0.073,0.017,0.109,0.022c0.017,0.003,0.034,0.007,0.052,0.01
		c0.054,0.006,0.107,0.01,0.161,0.01c0.055,0,0.108-0.004,0.162-0.01c0.017-0.003,0.033-0.007,0.052-0.01
		c0.037-0.006,0.073-0.013,0.109-0.022c0.018-0.005,0.038-0.011,0.059-0.017c0.033-0.01,0.066-0.021,0.098-0.034
		c0.02-0.009,0.04-0.017,0.059-0.025c0.01-0.005,0.022-0.008,0.033-0.013l15.579-7.67l8.664,3.199
		c0.146,0.053,0.298,0.08,0.448,0.08c0.257,0,0.511-0.076,0.728-0.224c0.344-0.234,0.548-0.62,0.548-1.032v-23.74
		C39.999,11.457,39.67,10.989,39.173,10.806z M12.187,38.211l-6.634-3.266V14.014l6.634,3.266V38.211z"/>
</g>
</svg>
