<?xml version="1.0" encoding="utf-8"?>
<!-- Generator: Adobe Illustrator 16.0.0, SVG Export Plug-In . SVG Version: 6.00 Build 0)  -->
<!DOCTYPE svg PUBLIC "-//W3C//DTD SVG 1.1//EN" "http://www.w3.org/Graphics/SVG/1.1/DTD/svg11.dtd">
<svg version="1.1" id="Layer_1" xmlns="http://www.w3.org/2000/svg" xmlns:xlink="http://www.w3.org/1999/xlink" x="0px" y="0px"
	 width="74px" height="74px" viewBox="0 0 74 74" enable-background="new 0 0 74 74" xml:space="preserve">
<g>
	<path d="M37,2.5c-19.299,0-35,15.701-35,35s15.701,35,35,35c19.299,0,35-15.701,35-35S56.299,2.5,37,2.5z M37,68.607
		c-17.154,0-31.107-13.955-31.107-31.107C5.893,20.347,19.846,6.393,37,6.393c17.152,0,31.107,13.955,31.107,31.107
		C68.107,54.652,54.152,68.607,37,68.607z M49.861,31.221L37.54,39.623L22.869,24.327c-0.744-0.775-1.977-0.801-2.751-0.058
		c-0.776,0.745-0.802,1.977-0.058,2.752l15.813,16.484c0.023,0.023,0.047,0.045,0.072,0.068c0.021,0.02,0.042,0.04,0.064,0.059
		c0.05,0.044,0.103,0.084,0.155,0.122c0.006,0.005,0.011,0.009,0.017,0.013c0.06,0.041,0.124,0.078,0.188,0.111
		c0.017,0.01,0.036,0.018,0.053,0.025c0.049,0.024,0.098,0.047,0.148,0.066c0.021,0.008,0.043,0.015,0.064,0.023
		c0.047,0.016,0.095,0.031,0.145,0.044c0.023,0.006,0.046,0.012,0.07,0.017c0.05,0.012,0.1,0.021,0.15,0.027
		c0.022,0.004,0.042,0.008,0.065,0.01c0.067,0.008,0.134,0.013,0.203,0.013h0.012c0.055,0,0.111-0.003,0.167-0.008
		c0.013-0.001,0.024-0.003,0.038-0.004c0.044-0.005,0.087-0.011,0.131-0.019c0.016-0.002,0.029-0.006,0.044-0.008
		c0.044-0.009,0.088-0.02,0.131-0.031c0.012-0.004,0.024-0.006,0.036-0.01c0.054-0.016,0.107-0.033,0.159-0.054
		c0.013-0.005,0.025-0.012,0.039-0.017c0.038-0.016,0.076-0.032,0.111-0.051c0.021-0.011,0.043-0.021,0.064-0.034
		c0.029-0.015,0.057-0.031,0.085-0.048c0.022-0.014,0.044-0.027,0.065-0.041c0.007-0.005,0.016-0.009,0.023-0.015l13.682-9.33
		c0.887-0.605,1.116-1.816,0.512-2.704C51.961,30.845,50.75,30.616,49.861,31.221z"/>
</g>
</svg>
