<?xml version="1.0" encoding="utf-8"?>
<!-- Generator: Adobe Illustrator 16.0.0, SVG Export Plug-In . SVG Version: 6.00 Build 0)  -->
<!DOCTYPE svg PUBLIC "-//W3C//DTD SVG 1.1//EN" "http://www.w3.org/Graphics/SVG/1.1/DTD/svg11.dtd">
<svg version="1.1" id="Layer_1" xmlns="http://www.w3.org/2000/svg" xmlns:xlink="http://www.w3.org/1999/xlink" x="0px" y="0px"
	 width="74px" height="74px" viewBox="0 0 74 74" enable-background="new 0 0 74 74" xml:space="preserve">
<g>
	<path d="M32.723,42.776c0,0.526,0.199,1.052,0.596,1.452c0.398,0.4,0.92,0.602,1.439,0.602
		c0.521,0,1.043-0.201,1.439-0.602l1.043-1.051l1.042,1.051c0.796,0.803,2.085,0.803,2.88,0c0.396-0.4,0.597-0.927,0.597-1.452
		s-0.2-1.051-0.597-1.451l-1.044-1.052l1.044-1.051c0.396-0.401,0.597-0.927,0.597-1.452c0-0.526-0.2-1.051-0.597-1.453
		c-0.795-0.801-2.084-0.801-2.88,0L37.24,37.37l-1.043-1.052c-0.794-0.801-2.083-0.801-2.879,0
		c-0.396,0.402-0.596,0.927-0.596,1.453c0,0.525,0.199,1.051,0.596,1.452l1.043,1.051l-1.043,1.052
		C32.922,41.726,32.723,42.251,32.723,42.776z M51.016,42.776c0,0.525,0.2,1.052,0.598,1.452c0.794,0.803,2.083,0.803,2.878,0
		l1.043-1.051l1.043,1.051c0.397,0.4,0.918,0.602,1.439,0.602s1.041-0.201,1.439-0.602c0.396-0.4,0.596-0.926,0.596-1.452
		c0-0.525-0.199-1.051-0.596-1.451l-1.043-1.052l1.043-1.051c0.396-0.401,0.596-0.927,0.596-1.452c0-0.526-0.199-1.051-0.596-1.453
		c-0.796-0.801-2.084-0.801-2.879,0l-1.043,1.052l-1.043-1.052c-0.795-0.801-2.084-0.801-2.878,0
		c-0.397,0.402-0.598,0.927-0.598,1.453c0,0.525,0.2,1.051,0.598,1.452l1.042,1.051l-1.042,1.052
		C51.216,41.726,51.016,42.251,51.016,42.776z M14.43,42.776c0,0.525,0.198,1.052,0.596,1.452c0.795,0.803,2.085,0.803,2.879,0
		l1.042-1.051l1.043,1.051c0.396,0.4,0.918,0.602,1.439,0.602c0.52,0,1.041-0.201,1.439-0.602c0.397-0.4,0.596-0.926,0.596-1.452
		c0-0.525-0.198-1.051-0.596-1.451l-1.042-1.052l1.042-1.051c0.397-0.401,0.596-0.927,0.596-1.452c0-0.526-0.198-1.051-0.596-1.453
		c-0.795-0.801-2.085-0.801-2.879,0l-1.043,1.052l-1.042-1.052c-0.796-0.801-2.084-0.801-2.879,0
		c-0.397,0.402-0.596,0.927-0.596,1.453c0,0.525,0.198,1.051,0.596,1.452l1.043,1.051l-1.043,1.052
		C14.628,41.726,14.43,42.251,14.43,42.776z M66.726,8.081h-6.674V6.865c0-2.958-2.386-5.365-5.317-5.365h-1.072
		c-2.934,0-5.318,2.407-5.318,5.365v1.216H26.357V6.919c0-2.958-2.384-5.365-5.318-5.365h-1.071c-2.933,0-5.318,2.407-5.318,5.365
		v1.161H7.275C4.919,8.081,3,10.015,3,12.392v56.795C3,71.565,4.919,73.5,7.275,73.5h59.45c2.357,0,4.274-1.935,4.274-4.313V12.392
		C71,10.015,69.083,8.081,66.726,8.081z M52.415,6.865c0-0.682,0.571-1.258,1.247-1.258h1.072c0.675,0,1.245,0.576,1.245,1.258
		v6.541c0,0.682-0.57,1.258-1.245,1.258h-1.072c-0.676,0-1.247-0.576-1.247-1.258V6.865z M18.722,6.919
		c0-0.682,0.571-1.258,1.246-1.258h1.071c0.676,0,1.247,0.576,1.247,1.258v6.54c0,0.683-0.571,1.258-1.247,1.258h-1.071
		c-0.591,0-1.102-0.44-1.22-1.007c-0.019-0.081-0.026-0.165-0.026-0.25V6.919z M66.929,69.188c0,0.107-0.097,0.205-0.203,0.205
		H7.275c-0.107,0-0.204-0.098-0.204-0.205V28.801h59.857V69.188z M66.929,24.694H7.071V12.392c0-0.107,0.097-0.205,0.204-0.205
		h7.374v1.272c0,2.958,2.386,5.365,5.318,5.365h1.071c2.935,0,5.318-2.407,5.318-5.365v-1.272h21.986v1.218
		c0,2.958,2.385,5.364,5.318,5.364h1.072c2.932,0,5.317-2.406,5.317-5.364v-1.218h6.674c0.106,0,0.203,0.098,0.203,0.205V24.694z
		 M14.43,59.427c0,0.525,0.198,1.051,0.596,1.452c0.795,0.801,2.085,0.801,2.879,0l1.042-1.053l1.043,1.053
		c0.396,0.4,0.918,0.602,1.439,0.602c0.52,0,1.041-0.201,1.439-0.602c0.397-0.401,0.596-0.927,0.596-1.452
		c0-0.526-0.198-1.052-0.596-1.452l-1.042-1.051l1.042-1.051c0.397-0.402,0.596-0.927,0.596-1.453c0-0.525-0.198-1.051-0.596-1.451
		c-0.795-0.802-2.085-0.802-2.879,0l-1.043,1.051l-1.042-1.051c-0.796-0.802-2.084-0.802-2.879,0
		c-0.397,0.4-0.596,0.926-0.596,1.451c0,0.526,0.198,1.051,0.596,1.453l1.043,1.051l-1.043,1.051
		C14.628,58.375,14.43,58.9,14.43,59.427z M34.423,61.845h6.024c1.125,0,2.037-0.919,2.037-2.054v-6.404
		c0-1.134-0.912-2.053-2.037-2.053h-6.024c-1.124,0-2.035,0.919-2.035,2.053v6.404C32.388,60.926,33.299,61.845,34.423,61.845z
		 M36.458,55.44h1.955v2.298h-1.955V55.44z M52.521,61.845h6.024c1.125,0,2.037-0.919,2.037-2.054v-6.404
		c0-1.134-0.912-2.053-2.037-2.053h-6.024c-1.124,0-2.035,0.919-2.035,2.053v6.404C50.486,60.926,51.397,61.845,52.521,61.845z
		 M54.557,55.44h1.955v2.298h-1.955V55.44z"/>
</g>
</svg>
