<?xml version="1.0" encoding="utf-8"?>
<!-- Generator: Adobe Illustrator 16.0.0, SVG Export Plug-In . SVG Version: 6.00 Build 0)  -->
<!DOCTYPE svg PUBLIC "-//W3C//DTD SVG 1.1//EN" "http://www.w3.org/Graphics/SVG/1.1/DTD/svg11.dtd">
<svg version="1.1" id="Layer_1" xmlns="http://www.w3.org/2000/svg" xmlns:xlink="http://www.w3.org/1999/xlink" x="0px" y="0px"
	 width="44px" height="44px" viewBox="0 0 44 44" enable-background="new 0 0 44 44" xml:space="preserve">
<g>
	<path d="M20.559,12.57c3.031,0,5.499-2.482,5.499-5.535c0-3.052-2.468-5.534-5.499-5.534
		c-3.033,0-5.502,2.482-5.502,5.534C15.057,10.088,17.525,12.57,20.559,12.57z M20.559,3.961c1.684,0,3.055,1.379,3.055,3.074
		c0,1.696-1.371,3.075-3.055,3.075c-1.686,0-3.057-1.379-3.057-3.075C17.502,5.34,18.873,3.961,20.559,3.961z M36.404,32.699
		c-0.769-1.29-2.175-2.091-3.669-2.091c-0.272,0-0.541,0.026-0.807,0.077l-2.358-4.032c-0.765-1.309-2.177-2.122-3.687-2.122h-1.246
		v-4.579c0-2.375-1.919-4.305-4.279-4.305c-2.098,0-3.838,1.529-4.2,3.537c-3.421,0.64-6.388,2.863-7.955,5.992
		c-1.345,2.684-1.569,5.735-0.636,8.59c0.937,2.855,2.921,5.172,5.589,6.526c1.604,0.813,3.327,1.206,5.034,1.206
		c2.996,0,5.932-1.224,8.086-3.5l0.361,0.617c0.573,0.983,1.533,1.709,2.631,1.99c0.345,0.088,0.7,0.133,1.057,0.133
		c0.775,0,1.536-0.212,2.2-0.614l0.041-0.023l2.396-1.511c0.968-0.593,1.649-1.526,1.925-2.632
		C37.165,34.842,36.993,33.686,36.404,32.699z M24.757,36.048c-2.623,3.012-6.941,3.854-10.5,2.048
		c-4.304-2.183-6.039-7.481-3.87-11.812c1.144-2.284,3.244-3.944,5.694-4.562v7.114c0,2.372,1.919,4.304,4.277,4.304h3.079
		l1.582,2.706C24.928,35.906,24.832,35.961,24.757,36.048z M33.68,36.496l-2.412,1.521c-0.287,0.173-0.613,0.263-0.942,0.263
		c-0.152,0-0.303-0.02-0.453-0.058c-0.474-0.121-0.88-0.428-1.128-0.853l-3.909-6.688h-4.477c-1.012,0-1.832-0.826-1.832-1.844
		v-8.885c0-1.02,0.82-1.846,1.832-1.846c1.014,0,1.834,0.826,1.834,1.846v7.039h3.691c0.649,0,1.251,0.346,1.58,0.909l3.504,5.994
		l0.826-0.563c0.295-0.178,0.62-0.263,0.941-0.263c0.623,0,1.231,0.32,1.573,0.896C34.83,34.838,34.549,35.972,33.68,36.496z"/>
</g>
</svg>
