<?xml version="1.0" encoding="utf-8"?>
<!-- Generator: Adobe Illustrator 21.1.0, SVG Export Plug-In . SVG Version: 6.00 Build 0)  -->
<svg version="1.1" id="Calque_1" xmlns="http://www.w3.org/2000/svg" xmlns:xlink="http://www.w3.org/1999/xlink" x="0px" y="0px"
	 viewBox="0 0 100 100" style="enable-background:new 0 0 100 100;" xml:space="preserve">
<style type="text/css">
	.st0{fill:#78BD7E;}
</style>
<g>
	<g>
		<path class="st0" d="M76,24h-4v4h4V24z M84,16H64v20h20V16z M80,32H68V20h12V32z M24,28h4v-4h-4V28z M16,36h20V16H16V36z M20,20
			h12v12H20V20z M76,72h-4v4h4V72z M84,64H64v20h20V64z M80,80H68V68h12V80z M52,28h4v-4h4v-4h-4v-4H44v4h8v4h-4v8h4V28z M48,32h-4
			v4h4V32z M40,28v4h4v-4H40z M40,24h4v-4h-4V24z M32,44h-4v4h4V44z M48,40v4h12v-4h-4v-8h-4v8H48z M44,36h-4v8h4V36z M36,40h-4v4h4
			V40z M20,40v4h8v-4H20z M40,48v-4h-4v4H40z M32,52h4v-4h-4V52z M16,48h4v-4h-4V48z M16,52v4h4v-4H16z M20,56v4h4v-4H20z M16,64v8
			h4v-4h4v-4H16z M24,72h8v-4h-8V72z M68,52v-4h-4v4H68z M40,72h-4v4h4V72z M36,76H16v8h4v-4h4v4h4v-4h4v4h12v-4h-8V76z M52,84v-4
			h-4v4H52z M56,84h4v-4h-4V84z M56,56h8v-4h-4v-4h-4v4h-4v12h8v-4h-4V56z M44,80h4v-4h-4V80z M36,64h-4v4h8v-8h-4V64z M32,52h-4v-4
			h-4v8h4v4h-4v4h8V52z M48,72v4h4v-4h4v4h4v-8H48v-8h-4v12H48z M36,56h4v4h4v-4h4v-4H36V56z M44,48h4v-4h-4V48z M48,48v4h4v-4H48z
			 M64,48v-4h-4v4H64z M68,40h-4v4h4V40z M72,40v8h4v-8H72z M72,56v4h4v-4h4v-4h4v-8h-4v4h-4v4h-8v4H72z M64,60h4v-4h-4V60z M80,6v4
			h10v10h4V6H80z M10,10h10V6H6v14h4V10z M10,80H6v14h14v-4H10V80z M90,90H80v4h14V80h-4V90z M84,60v-4h-4v4H84z"/>
	</g>
</g>
</svg>
