<?xml version="1.0" encoding="utf-8"?>
<!-- Generator: Adobe Illustrator 16.0.0, SVG Export Plug-In . SVG Version: 6.00 Build 0)  -->
<!DOCTYPE svg PUBLIC "-//W3C//DTD SVG 1.1//EN" "http://www.w3.org/Graphics/SVG/1.1/DTD/svg11.dtd">
<svg version="1.1" id="Layer_1" xmlns="http://www.w3.org/2000/svg" xmlns:xlink="http://www.w3.org/1999/xlink" x="0px" y="0px"
	 width="96px" height="96px" viewBox="0 0 96 96" enable-background="new 0 0 96 96" xml:space="preserve">
<path fill="black" d="M57.363,25.618c0.902,0,1.807,0.347,2.494,1.038c1.377,1.384,1.377,3.628,0,5.012L43.311,48.3l16.547,16.633
	c1.377,1.384,1.377,3.628,0,5.012c-1.379,1.384-3.61,1.384-4.987,0l-19.04-19.138c-1.377-1.385-1.377-3.629,0-5.013l19.04-19.138
	C55.558,25.965,56.461,25.618,57.363,25.618z"/>
<path fill-rule="evenodd" clip-rule="evenodd" fill="none" stroke="black" d="M47.499,2.5c24.854,0,45.001,20.147,45.001,45
	c0,24.854-20.146,45-45.001,45C22.647,92.5,2.5,72.354,2.5,47.5C2.5,22.647,22.647,2.5,47.499,2.5z"/>
</svg>
